<?xml version="1.0" standalone="no"?>
<!DOCTYPE svg PUBLIC "-//W3C//DTD SVG 20010904//EN"
 "http://www.w3.org/TR/2001/REC-SVG-20010904/DTD/svg10.dtd">
<svg version="1.0" xmlns="http://www.w3.org/2000/svg"
 width="1024.000000pt" height="1024.000000pt" viewBox="0 0 1024.000000 1024.000000"
 preserveAspectRatio="xMidYMid meet">

<g transform="translate(0.000000,1024.000000) scale(0.100000,-0.100000)"
fill="#000000" stroke="none">
<path d="M3560 6673 c-239 -38 -515 -149 -695 -277 -126 -90 -286 -280 -361
-428 -32 -64 -60 -157 -69 -233 -4 -33 -9 -71 -11 -85 -2 -14 -7 -70 -10 -125
-5 -96 -11 -121 -50 -210 l-17 -40 -23 69 c-15 42 -24 93 -24 128 0 64 -54
225 -118 353 -119 239 -285 397 -514 490 -161 66 -376 115 -500 115 l-58 0 0
-34 c0 -127 121 -443 237 -618 170 -258 349 -372 738 -473 55 -14 103 -29 108
-34 15 -15 37 -115 48 -216 8 -76 7 -123 -2 -192 -12 -92 -13 -93 -41 -93 -38
0 -199 -43 -274 -74 -130 -53 -243 -134 -327 -235 -46 -56 -115 -192 -124
-243 l-6 -38 892 0 c490 0 891 4 891 8 0 20 -42 127 -71 182 -109 204 -380
368 -666 403 l-93 11 0 46 c0 41 8 102 26 215 9 57 52 204 72 245 16 33 21 36
97 51 154 30 346 109 485 200 134 89 268 245 353 414 85 170 152 428 164 628
6 107 10 101 -57 90z m47 -25 c-3 -8 -6 -5 -6 6 -1 11 2 17 5 13 3 -3 4 -12 1
-19z m-447 -413 c0 -2 -13 -11 -30 -20 -38 -19 -40 -11 -2 9 31 17 32 18 32
11z m35 -55 c-3 -5 -12 -10 -18 -10 -7 0 -6 4 3 10 19 12 23 12 15 0z m-195
-44 c0 -2 -8 -10 -17 -17 -16 -13 -17 -12 -4 4 13 16 21 21 21 13z m120 -19
c0 -1 -51 -52 -112 -112 l-113 -110 110 113 c102 104 115 117 115 109z m-160
-10 c0 -2 -12 -14 -27 -28 l-28 -24 24 28 c23 25 31 32 31 24z m-60 -50 c0 -1
-24 -25 -52 -52 l-53 -50 50 53 c46 48 55 57 55 49z m-1285 -17 c3 -6 -1 -7
-9 -4 -18 7 -21 14 -7 14 6 0 13 -4 16 -10z m40 -20 c3 -6 -1 -7 -9 -4 -18 7
-21 14 -7 14 6 0 13 -4 16 -10z m6 -106 c60 -53 109 -99 109 -102 0 -3 -12 6
-27 19 -16 14 -67 60 -116 102 -48 42 -85 77 -82 77 4 0 55 -43 116 -96z m69
60 c0 -2 -9 0 -20 6 -11 6 -20 13 -20 16 0 2 9 0 20 -6 11 -6 20 -13 20 -16z
m143 -103 c7 -8 -14 5 -45 28 -32 24 -58 45 -58 48 0 7 89 -59 103 -76z m917
76 c0 -1 -24 -25 -52 -52 l-53 -50 50 53 c46 48 55 57 55 49z m75 -95 l-28
-27 24 31 c13 17 26 30 28 27 3 -2 -8 -16 -24 -31z m-950 -12 c10 -11 16 -20
13 -20 -3 0 -13 9 -23 20 -10 11 -16 20 -13 20 3 0 13 -9 23 -20z m775 -3 c0
-2 -12 -14 -27 -28 l-28 -24 24 28 c23 25 31 32 31 24z m150 -20 c0 -2 -10
-12 -22 -23 l-23 -19 19 23 c18 21 26 27 26 19z m-970 -94 c0 -8 -9 0 -50 45
l-45 47 48 -45 c26 -24 47 -45 47 -47z m274 -100 c88 -94 44 -56 -74 64 -63
65 -83 88 -45 53 39 -36 92 -89 119 -117z m496 154 c0 -2 -10 -12 -22 -23
l-23 -19 19 23 c18 21 26 27 26 19z m140 -37 c-12 -16 -24 -30 -26 -30 -3 0 4
14 16 30 12 17 24 30 26 30 3 0 -4 -13 -16 -30z m-860 -55 c19 -19 32 -35 29
-35 -3 0 -20 16 -39 35 -19 19 -32 35 -29 35 3 0 20 -16 39 -35z m821 -2 c-5
-10 -17 -27 -26 -38 -16 -19 -17 -19 -3 5 26 46 29 50 34 50 3 0 0 -8 -5 -17z
m-755 -75 l29 -33 -32 29 c-18 17 -33 31 -33 33 0 8 8 1 36 -29z m515 -25 c-5
-10 -17 -27 -26 -38 -16 -19 -17 -19 -3 5 26 46 29 50 34 50 3 0 0 -8 -5 -17z
m-466 -33 c10 -11 16 -20 13 -20 -3 0 -13 9 -23 20 -10 11 -16 20 -13 20 3 0
13 -9 23 -20z m176 -7 c13 -16 12 -17 -3 -4 -10 7 -18 15 -18 17 0 8 8 3 21
-13z m392 -98 c-15 -30 -29 -53 -31 -51 -4 5 46 106 53 106 3 0 -7 -25 -22
-55z m-316 -18 c-4 -7 -6 -6 -6 4 -1 9 -8 22 -16 29 -8 7 -15 17 -15 23 0 5 9
-2 21 -17 11 -14 18 -32 16 -39z m147 48 c-4 -8 -8 -15 -10 -15 -2 0 -4 7 -4
15 0 8 4 15 10 15 5 0 7 -7 4 -15z m-286 -110 c-3 -3 -9 2 -12 12 -6 14 -5 15
5 6 7 -7 10 -15 7 -18z m415 -5 c-3 -11 -9 -20 -15 -20 -5 0 -4 9 2 20 6 11
12 20 14 20 2 0 2 -9 -1 -20z m-387 -67 c-3 -4 -6 -1 -6 6 0 7 -4 9 -10 6 -6
-4 -7 1 -3 11 6 15 7 15 15 -1 6 -9 7 -19 4 -22z"/>
<path d="M3841 5075 l-1 -545 115 0 115 0 2 350 3 350 220 -311 c121 -172 232
-329 248 -350 l27 -39 110 0 110 0 0 545 0 545 -110 0 -110 0 0 -357 0 -358
-38 54 c-42 62 -151 216 -337 479 l-129 182 -113 0 -112 0 0 -545z"/>
<path d="M5375 5584 c-8 -20 -15 -38 -15 -40 0 -2 -77 -214 -171 -471 -94
-257 -177 -485 -185 -506 l-13 -38 126 3 126 3 36 105 c20 58 39 104 44 103 4
-2 101 -3 216 -3 l209 0 18 -52 c9 -29 25 -77 36 -105 l19 -53 126 0 c96 0
124 3 120 13 -2 6 -52 143 -111 302 -58 160 -146 398 -194 530 l-89 240 -141
3 -142 3 -15 -37z m232 -424 l72 -210 -148 0 -149 0 60 173 c33 94 66 189 71
210 6 20 14 37 17 37 3 0 38 -94 77 -210z"/>
<path d="M6265 5075 l0 -547 310 4 c290 4 314 5 365 26 74 29 125 73 158 136
24 45 27 62 27 146 0 85 -3 100 -27 141 -31 52 -79 97 -119 111 l-27 9 48 48
c137 137 81 381 -102 447 -46 16 -89 19 -343 22 l-290 3 0 -546z m515 334 c47
-21 60 -44 60 -102 0 -55 -27 -93 -78 -107 -20 -5 -90 -10 -154 -10 l-118 0 0
121 0 121 126 -3 c92 -2 136 -8 164 -20z m47 -432 c48 -25 67 -61 67 -124 0
-46 -4 -57 -31 -84 -39 -40 -82 -48 -245 -49 l-128 0 0 141 0 141 153 -4 c118
-3 159 -8 184 -21z"/>
<path d="M7250 5515 l0 -105 170 0 170 0 0 -440 0 -440 115 0 115 0 0 440 0
440 165 0 165 0 0 105 0 105 -450 0 -450 0 0 -105z"/>
<path d="M8530 5610 c0 -10 -190 -535 -326 -898 -35 -95 -64 -174 -64 -177 0
-3 56 -5 124 -5 121 0 125 1 132 23 3 12 20 59 36 105 l30 82 217 0 217 0 35
-102 35 -103 128 -3 c120 -2 128 -1 121 15 -6 17 -70 190 -181 488 -24 66 -82
224 -128 350 l-84 230 -146 3 c-97 2 -146 -1 -146 -8z m227 -450 l71 -210
-150 0 c-116 0 -149 3 -146 13 3 6 35 101 73 210 37 108 70 197 74 197 3 0 38
-95 78 -210z"/>
</g>
</svg>
